FILE "NASCAR Racing (1996)(Sierra)(GB)[S6700210Z12ZZ] (Track 1 of 3).bin" BINARY
  TRACK 01 MODE1/2352
    INDEX 01 00:00:00
FILE "NASCAR Racing (1996)(Sierra)(GB)[S6700210Z12ZZ] (Track 2 of 3).bin" BINARY
  TRACK 02 AUDIO
    INDEX 00 00:00:00
    INDEX 01 00:01:74
FILE "NASCAR Racing (1996)(Sierra)(GB)[S6700210Z12ZZ] (Track 3 of 3).bin" BINARY
  TRACK 03 AUDIO
    INDEX 00 00:00:00
    INDEX 01 00:01:74
